<svg id="Layer_1" data-name="Layer 1" xmlns="http://www.w3.org/2000/svg" xmlns:xlink="http://www.w3.org/1999/xlink" viewBox="0 0 500 382.96"><defs><style>.cls-1{fill:none;}.cls-2{clip-path:url(#clip-path);}.cls-3{fill:url(#linear-gradient);}.cls-4{clip-path:url(#clip-path-2);}.cls-5{fill:url(#linear-gradient-2);}.cls-6{clip-path:url(#clip-path-3);}.cls-7{fill:url(#linear-gradient-3);}</style><clipPath id="clip-path" transform="translate(0 -47.04)"><path class="cls-1" d="M0,430H129.05S231.6,145.14,500,127.68c0,0-16.3-4.16-44.79-4.16C372.76,123.51,188.1,158.39,0,430"/></clipPath><linearGradient id="linear-gradient" x1="-110.08" y1="611.16" x2="-107.48" y2="611.16" gradientTransform="matrix(0, -152.49, -152.49, 0, 93445.37, -16402.96)" gradientUnits="userSpaceOnUse"><stop offset="0" stop-color="#0e73a8"/><stop offset="0.53" stop-color="#2fbced"/><stop offset="1" stop-color="#0c73a9"/></linearGradient><clipPath id="clip-path-2" transform="translate(0 -47.04)"><path class="cls-1" d="M77.23,319.51c82.07-92.27,160.69-143.7,227.26-171.83L243.17,47Z"/></clipPath><linearGradient id="linear-gradient-2" x1="-110.08" y1="611.39" x2="-107.48" y2="611.39" gradientTransform="matrix(0, -152.49, -152.49, 0, 93421.15, -16402.96)" xlink:href="#linear-gradient"/><clipPath id="clip-path-3" transform="translate(0 -47.04)"><path class="cls-1" d="M264.59,244.61l88.63,150.17C364.7,414.23,393.17,430,416.81,430h59.63l-146-239.7a439,439,0,0,0-65.85,54.31"/></clipPath><linearGradient id="linear-gradient-3" x1="-110.08" y1="610.69" x2="-107.48" y2="610.69" gradientTransform="matrix(0, -152.49, -152.49, 0, 93494.73, -16402.96)" xlink:href="#linear-gradient"/></defs><title>LOGO_A</title><g class="cls-2"><rect class="cls-3" y="76.47" width="500" height="306.49"/></g><g class="cls-4"><rect class="cls-5" x="77.23" width="227.26" height="272.47"/></g><g class="cls-6"><rect class="cls-7" x="264.59" y="143.26" width="211.85" height="239.7"/></g></svg>